
<svg xmlns="http://www.w3.org/2000/svg" width="1024.66" height="1024.66" viewBox="0 0 1024.66 1024.66"><defs><style>.cls-1{fill:#fff;}</style></defs><g id="Layer_2" data-name="Layer 2"><g id="Layer_1-2" data-name="Layer 1"><path class="cls-1" d="M516.07,473C441,473,382,533,382,611.84S441,750.63,516.07,750.63a130.82,130.82,0,0,0,69-19.43c14,2.73,28.08,5.7,42.21,8.27,11.7,2.11,17.24-3.82,14.9-15.37-3.05-15-6.17-30-9-44.94a145.65,145.65,0,0,0,16-67.32C649.25,533,590.19,473,516.07,473Z"/><path class="cls-1" d="M0,0V1024.66H1024.66V0ZM773.06,851H657.75V806.88c-42.21,36.59-97.6,58.2-157.59,58.2C362.3,865.08,251.6,752.5,251.6,611.84S362.3,358.59,500.16,358.59a242.39,242.39,0,0,1,149.09,50.64V166.28H773.06Z"/></g></g></svg>
